<svg xmlns="http://www.w3.org/2000/svg" width="503.475" height="478.692" viewBox="0 0 503.475 478.692">
  <g id="Group_1" data-name="Group 1" transform="matrix(0.875, 0.485, -0.485, 0.875, -243.579, -406.974)">
    <g id="Union_1" data-name="Union 1" transform="translate(549 161)" fill="#fff">
      <path d="M 131.8401184082031 326.5006103515625 L 74.35441589355469 326.5006103515625 C 71.45158386230469 326.5006103515625 68.63583374023438 325.9321899414062 65.98545837402344 324.8111267089844 C 63.42525100708008 323.7282104492188 61.12583160400391 322.1778564453125 59.15112686157227 320.2030639648438 C 57.17645645141602 318.2283020019531 55.62612533569336 315.9289245605469 54.54329299926758 313.3687133789062 C 53.42229080200195 310.7183837890625 52.85391616821289 307.9028015136719 52.85391616821289 305.0001525878906 L 52.85391616821289 151.2252197265625 L 52.85391616821289 150.7252197265625 L 52.35391616821289 150.7252197265625 L 0.9481185674667358 150.7252197265625 L 103.5 0.8853219747543335 L 206.0518798828125 150.7252197265625 L 153.8406219482422 150.7252197265625 L 153.3406219482422 150.7252197265625 L 153.3406219482422 151.2252197265625 L 153.3406219482422 305.0001525878906 C 153.3406219482422 307.9028015136719 152.7722473144531 310.7183837890625 151.6512451171875 313.3687133789062 C 150.5684204101562 315.9289245605469 149.0180816650391 318.2283020019531 147.0433807373047 320.2030639648438 C 145.0686645507812 322.1778564453125 142.769287109375 323.7282104492188 140.2090759277344 324.8111267089844 C 137.5586700439453 325.9321899414062 134.7429656982422 326.5006103515625 131.8401184082031 326.5006103515625 Z" stroke="none"/>
      <path d="M 131.8401184082031 326.0006103515625 C 134.6756591796875 326.0006103515625 137.4258728027344 325.4454650878906 140.0142974853516 324.3506469726562 C 142.5148773193359 323.2929382324219 144.7608795166016 321.778564453125 146.6898345947266 319.8495178222656 C 148.6187896728516 317.9205017089844 150.1331176757812 315.674560546875 151.1907501220703 313.1739196777344 C 152.2855377197266 310.5856018066406 152.8406219482422 307.8355102539062 152.8406219482422 305.0001525878906 L 152.8406219482422 151.2252197265625 L 152.8406219482422 150.2252197265625 L 153.8406219482422 150.2252197265625 L 205.1037902832031 150.2252197265625 L 103.5 1.770588755607605 L 1.896208643913269 150.2252197265625 L 52.35391616821289 150.2252197265625 L 53.35391616821289 150.2252197265625 L 53.35391616821289 151.2252197265625 L 53.35391616821289 305.0001525878906 C 53.35391616821289 307.8355102539062 53.90900039672852 310.5856018066406 55.00379180908203 313.1739196777344 C 56.06141662597656 315.674560546875 57.57574844360352 317.9205017089844 59.50470733642578 319.8495178222656 C 61.43366622924805 321.778564453125 63.67962646484375 323.2929382324219 66.18025207519531 324.3506469726562 C 68.76866912841797 325.4454650878906 71.51887512207031 326.0006103515625 74.35441589355469 326.0006103515625 L 131.8401184082031 326.0006103515625 M 131.8401184082031 327.0006103515625 L 74.35441589355469 327.0006103515625 C 62.20349884033203 327.0006103515625 52.35391616821289 317.150146484375 52.35391616821289 305.0001525878906 L 52.35391616821289 151.2252197265625 L 1.4210854715202e-14 151.2252197265625 L 103.5 1.350911497866036e-05 L 207 151.2252197265625 L 153.8406219482422 151.2252197265625 L 153.8406219482422 305.0001525878906 C 153.8406219482422 317.150146484375 143.9909973144531 327.0006103515625 131.8401184082031 327.0006103515625 Z" stroke="none" fill="#707070"/>
    </g>
    <g id="Union_3" data-name="Union 3" transform="matrix(-1, -0.017, 0.017, -1, 939.651, 491.773)" fill="#fff">
      <path d="M 131.6916046142578 326.76611328125 L 74.3031005859375 326.76611328125 C 71.40047454833984 326.76611328125 68.58493041992188 326.1977233886719 65.93463897705078 325.0767517089844 C 63.37455749511719 323.9939270019531 61.07526779174805 322.4436340332031 59.10060119628906 320.4690246582031 C 57.1259765625 318.4943542480469 55.57568359375 316.195068359375 54.49285125732422 313.6349792480469 C 53.37189102172852 310.9846801757812 52.80351638793945 308.1691284179688 52.80351638793945 305.2665100097656 L 52.80351638793945 151.3485107421875 L 52.80351638793945 150.8485107421875 L 52.30351638793945 150.8485107421875 L 0.947135329246521 150.8485107421875 L 103.4001007080078 0.886327862739563 L 205.8531036376953 150.8485107421875 L 153.6921081542969 150.8485107421875 L 153.1921081542969 150.8485107421875 L 153.1921081542969 151.3485107421875 L 153.1921081542969 305.2665100097656 C 153.1921081542969 308.169189453125 152.6237182617188 310.9847106933594 151.5027313232422 313.6349792480469 C 150.4198913574219 316.195068359375 148.8695983886719 318.4943542480469 146.8948974609375 320.4690246582031 C 144.9201812744141 322.4436340332031 142.6208038330078 323.9939270019531 140.0605621337891 325.0767517089844 C 137.4101867675781 326.1977233886719 134.594482421875 326.76611328125 131.6916046142578 326.76611328125 Z" stroke="none"/>
      <path d="M 131.6916046142578 326.26611328125 C 134.5271911621094 326.26611328125 137.2773895263672 325.7110290527344 139.8658142089844 324.6162719726562 C 142.3664398193359 323.5586547851562 144.6123962402344 322.0443420410156 146.5413513183594 320.1154174804688 C 148.4702606201172 318.1865539550781 149.9846038818359 315.940673828125 151.0422210693359 313.440185546875 C 152.1370239257812 310.8518981933594 152.6921081542969 308.1018981933594 152.6921081542969 305.2665100097656 L 152.6921081542969 151.3485107421875 L 152.6921081542969 150.3485107421875 L 153.6921081542969 150.3485107421875 L 204.9059143066406 150.3485107421875 L 103.4001007080078 1.772743344306946 L 1.894323348999023 150.3485107421875 L 52.30351638793945 150.3485107421875 L 53.30351638793945 150.3485107421875 L 53.30351638793945 151.3485107421875 L 53.30351638793945 305.2665100097656 C 53.30351638793945 308.1018981933594 53.85860061645508 310.8518981933594 54.95335006713867 313.440185546875 C 56.0109748840332 315.940673828125 57.5252685546875 318.1865539550781 59.45418548583984 320.1154174804688 C 61.38306045532227 322.0443420410156 63.62893295288086 323.5586547851562 66.12943267822266 324.6162719726562 C 68.71772766113281 325.7110290527344 71.46772766113281 326.26611328125 74.3031005859375 326.26611328125 L 131.6916046142578 326.26611328125 M 131.6916046142578 327.26611328125 L 74.3031005859375 327.26611328125 C 62.15309906005859 327.26611328125 52.30351638793945 317.41650390625 52.30351638793945 305.2665100097656 L 52.30351638793945 151.3485107421875 L 1.737467391649261e-05 151.3485107421875 L 103.4001007080078 1.497395805927226e-05 L 206.8002319335938 151.3485107421875 L 153.6921081542969 151.3485107421875 L 153.6921081542969 305.2665100097656 C 153.6921081542969 317.41650390625 143.8425140380859 327.26611328125 131.6916046142578 327.26611328125 Z" stroke="none" fill="#707070"/>
    </g>
    <path id="Union_2" data-name="Union 2" d="M74.354,327a22,22,0,0,1-22-22V151.225H0L103.5,0,207,151.225H153.841V305a22,22,0,0,1-22,22Z" transform="translate(549 161)" fill="#ef9797"/>
    <path id="Union_4" data-name="Union 4" d="M74.3,327.266a22,22,0,0,1-22-22V151.349H0L103.4,0,206.8,151.349H153.692V305.267a22,22,0,0,1-22,22Z" transform="matrix(-1, -0.017, 0.017, -1, 939.651, 491.773)" fill="#b0db91"/>
  </g>
</svg>
